<svg xmlns="http://www.w3.org/2000/svg" fill="#5d8e00" version="1.0" viewBox="0 0 493 493"><path d="M327.7 3c-6.9 1.2-16.8 6.2-22.1 11.1-2.9 2.6-6 7-8.4 11.7-3.6 7.5-3.7 7.8-3.7 19.2 0 11 .2 11.9 3.2 18.1 3.1 6.2 8.5 12.2 17.2 18.9l3.2 2.5V216c0 88.7-.3 135-1.1 142.3-2.8 27.9-14.9 52.9-34.6 71.8-30.9 29.4-71.1 32.1-96.9 6.4-12-11.9-18.9-24.9-22.1-41.2-1.3-7.1-2.1-45.3-.9-45.3.3 0 6.9 3.2 14.6 7.1 7.8 3.8 16.5 8.1 19.4 9.3l5.3 2.4-5.5-7.6c-13.1-18.3-25.7-41.9-32.9-61.7-5.8-16.1-11-38.4-15.9-67.8-2.5-15.1-4.5-28.5-4.6-29.8 0-2.2-.1-2.3-.9-.4-.5 1.1-1.6 10.5-2.5 21-.9 10.4-1.8 21-2 23.5-.2 2.5-1.1 11.5-1.9 20-.8 8.5-1.7 18-2 21-.3 3-2.3 24.6-4.6 48-5.2 53.1-4.9 61.4 3 84.6 10.1 29.9 35 56.2 62 65.6 19.6 6.8 41.6 7.2 62.9 1.2 11.5-3.2 29.2-12.1 38.8-19.3 30.2-22.8 49.8-56.2 57.1-97.1 1.5-8.6 1.7-22.8 1.7-148.2.1-76.3.3-138.9.5-139.1.3-.2 2.1-1.3 4.1-2.5 5.6-3.4 11.7-10.6 15.2-18 3-6.3 3.2-7.4 3.2-17.7 0-10.5-.2-11.3-3.4-17.9-6-12.4-16.2-20.2-30-23.2-7.3-1.5-8.4-1.5-15.4-.4zm15.9 27.5c4.6 2.7 8.4 9 8.4 14.1 0 1.6-1 5-2.2 7.4-5.8 11.5-19.9 12.9-28.1 2.8-11.4-14.1 6-33.6 21.9-24.3z"/></svg>